<?xml version="1.0" encoding="UTF-8"?><svg id="Layer_1" xmlns="http://www.w3.org/2000/svg" viewBox="0 0 1000 1000"><defs><style>.cls-1{fill:#212322;stroke-width:0px;}</style></defs><path class="cls-1" d="m487.6,270.95c3.31,6.51,5.87,13.5,7.85,20.54,1.95,6.94,2.75,14.19,3.87,20.29,2.51-48.89,42.94-94.95,99.51-97.11-56.79-1.73-97.98-48.27-99.7-98.36-1.9,26.7-11.71,49.91-30.89,68.74-19.14,18.8-42.36,28.44-67.07,29.47,5.27.85,12.65,1.49,19.72,3.33,7.07,1.85,14.1,4.35,20.65,7.59,6.54,3.24,12.82,7.28,18.54,11.82,5.66,4.49,10.97,9.65,15.55,15.25,4.62,5.65,8.68,11.93,11.98,18.44Z"/><path class="cls-1" d="m490.39,662.11h144.37c10.08,0,18.25-8.17,18.25-18.25s-8.17-18.25-18.25-18.25h-144.37c-10.08,0-18.25,8.17-18.25,18.25s8.17,18.25,18.25,18.25Z"/><path class="cls-1" d="m411.01,569.59l-72.02,72.02-22.4-22.4c-7.13-7.13-18.68-7.13-25.81,0s-7.13,18.68,0,25.81l35.31,35.31c3.42,3.42,8.07,5.35,12.91,5.35s9.48-1.92,12.91-5.35l84.92-84.92c7.13-7.13,7.13-18.68,0-25.81-7.13-7.13-18.68-7.13-25.81,0Z"/><path class="cls-1" d="m816.73,1.2H183.27c-30.14,0-54.66,24.52-54.66,54.66v888.29c0,30.14,24.52,54.66,54.66,54.66h633.46c30.14,0,54.66-24.52,54.66-54.66V55.86c0-30.14-24.52-54.66-54.66-54.66Zm0,961.1H183.27c-10.01,0-18.16-8.14-18.16-18.16V55.86c0-10.01,8.14-18.16,18.16-18.16h633.46c10.01,0,18.16,8.14,18.16,18.16v888.29c0,10.01-8.14,18.16-18.16,18.16Z"/><path class="cls-1" d="m699.1,803.05h-208.7c-10.08,0-18.25,8.17-18.25,18.25s8.17,18.25,18.25,18.25h208.7c10.08,0,18.25-8.17,18.25-18.25s-8.17-18.25-18.25-18.25Z"/><path class="cls-1" d="m411.01,747.04l-72.02,72.02-22.4-22.4c-7.13-7.13-18.68-7.13-25.81,0-7.13,7.13-7.13,18.68,0,25.81l35.31,35.31c3.56,3.56,8.24,5.35,12.91,5.35s9.34-1.78,12.91-5.35l84.92-84.92c7.13-7.13,7.13-18.68,0-25.81-7.13-7.13-18.68-7.13-25.81,0Z"/><path class="cls-1" d="m699.1,448.16h-208.7c-10.08,0-18.25,8.17-18.25,18.25s8.17,18.25,18.25,18.25h208.7c10.08,0,18.25-8.17,18.25-18.25s-8.17-18.25-18.25-18.25Z"/><path class="cls-1" d="m411.01,392.15l-72.02,72.02-22.4-22.4c-7.13-7.13-18.68-7.13-25.81,0-7.13,7.13-7.13,18.68,0,25.81l35.31,35.31c3.56,3.56,8.24,5.35,12.91,5.35s9.34-1.78,12.91-5.35l84.92-84.92c7.13-7.13,7.13-18.68,0-25.81-7.13-7.13-18.68-7.13-25.81,0Z"/></svg>